<?xml version="1.0" standalone="no"?>
<!DOCTYPE svg PUBLIC "-//W3C//DTD SVG 1.1//EN" "http://www.w3.org/Graphics/SVG/1.1/DTD/svg11.dtd" >
<svg xmlns="http://www.w3.org/2000/svg" xmlns:xlink="http://www.w3.org/1999/xlink" version="1.1">
<metadata>
Created by FontForge 20200427 at Fri Aug 11 21:57:28 2006
 By www
(c) 2006 Oyrus &#38; Friends - FREEWARE -  All Rights Reserved.
</metadata>
<defs>
<font id="Minangkabau" horiz-adv-x="729" >
  <font-face 
    font-family="Minangkabau"
    font-weight="400"
    font-stretch="normal"
    units-per-em="2048"
    panose-1="2 11 7 6 4 0 2 6 2 4"
    ascent="1638"
    descent="-410"
    x-height="1120"
    cap-height="1402"
    bbox="-121 -246 2365 1886"
    underline-thickness="102"
    underline-position="-256"
    unicode-range="U+0020-00C5"
  />
    <missing-glyph />
    <glyph glyph-name="0413" horiz-adv-x="1536" 
d="M256 0v1280h1024v-1280h-1024zM288 32h960v1216h-960v-1216z" />
    <glyph glyph-name=".null" horiz-adv-x="0" 
 />
    <glyph glyph-name=".nonmarkingreturn" horiz-adv-x="317" 
 />
    <glyph glyph-name="space" unicode=" " horiz-adv-x="365" 
 />
    <glyph glyph-name="space" unicode="&#xa0;" horiz-adv-x="365" 
 />
    <glyph glyph-name="exclam" unicode="!" horiz-adv-x="344" 
d="M315 272h-285v581v211q212 55 285 290v-1082zM315 0h-285v209h285v-209z" />
    <glyph glyph-name="quotedbl" unicode="&#x22;" horiz-adv-x="766" 
d="M744 1434q-290 -498 -411 -478l136 239l68 119q103 -10 207 120zM433 1434q-291 -498 -412 -478l137 239l68 119q103 0 207 120z" />
    <glyph glyph-name="numbersign" unicode="#" horiz-adv-x="1645" 
d="M1567 866h-285l-51 -339l231 -164h-283l-49 -363h-284l49 363h-299l-49 -363h-285l49 363h-283l332 164l54 339h-281l332 145l49 283q48 -232 394.5 -242t473.5 242l-49 -283zM1017 866q-169 -40 -309 0l-61 -339h297z" />
    <glyph glyph-name="dollar" unicode="$" horiz-adv-x="776" 
d="M527 26v-124q-82 109 -284 128q-213 54 -213 244v297q148 -358 275.5 -353t127.5 126.5t-40.5 176t-201.5 184.5t-161 370t213 285q222 4 284 168v-168q193 -47 193 -240v-248q-134 321 -261.5 314t-124.5 -134.5t109 -236.5q214 -142 259 -210t45 -152v-153
q0 -230 -220 -274z" />
    <glyph glyph-name="percent" unicode="%" horiz-adv-x="709" 
d="M45 965v479q49 -90 279 -160v-319q0 -93 -140 -93q-139 0 -139 93zM203 961v331h-39v-331q0 -17 20 -17q19 0 19 17zM682 1434l-518 -1434h-137l259 717l130 359l64 179q101 19 202 179zM387 76v319q249 80 279 160v-479q0 -92 -140 -92q-139 0 -139 92zM545 72v321h-39
v-321q0 -17 20 -17q19 0 19 17z" />
    <glyph glyph-name="ampersand" unicode="&#x26;" horiz-adv-x="872" 
d="M805 397l-103 -60v-122v-231h-312q-144 0 -250 68.5t-106 217.5v269q0 190 188 233q-178 61 -178 205v211v256q95 -116 285 -128.5t385 49.5v-221v-136h-225v149h-103h-57v-196q0 -66 24.5 -82.5t94.5 -16.5v-174q-70 0 -92.5 -13.5t-22.5 -86.5v-344q0 -60 57 -60h58
v377q58 -162 357 -164z" />
    <glyph glyph-name="quotesingle" unicode="'" horiz-adv-x="455" 
d="M433 1434q-291 -498 -412 -478l137 239l68 119q103 0 207 120z" />
    <glyph glyph-name="comma" unicode="," horiz-adv-x="322" 
d="M127 -172l-57 47q67 67 73 125h-112q220 64 260 209q0 -273 -164 -381z" />
    <glyph glyph-name="hyphen" unicode="-" horiz-adv-x="461" 
d="M444 510h-407v31h407v-31z" />
    <glyph glyph-name="hyphen" unicode="&#xad;" horiz-adv-x="461" 
d="M444 510h-407v31h407v-31z" />
    <glyph glyph-name="period" unicode="." horiz-adv-x="315" 
d="M288 0h-260v209q90 -145 260 -209z" />
    <glyph glyph-name="slash" unicode="/" horiz-adv-x="684" 
d="M656 1434l-458 -1434h-170l229 717l115 359l57 179q113 -21 227 179z" />
    <glyph glyph-name="zero" unicode="0" horiz-adv-x="795" 
d="M30 245v923v279q371 -247 735 0v-277v-923q0 -124 -102.5 -192t-263.5 -68q-166 0 -267.5 67t-101.5 191zM450 230v977h-105v-977q0 -43 54 -43q51 0 51 43z" />
    <glyph glyph-name="one" unicode="1" horiz-adv-x="500" 
d="M465 0h-315v1051q-121 0 -121 383q69 -174 213 -178.5t223 178.5v-1434z" />
    <glyph glyph-name="two" unicode="2" horiz-adv-x="770" 
d="M745 0h-719q0 190 354 840q58 106 58 190q0 96 -64 96q-156 0 -348 -206v250v277q91 -130 316.5 -170.5t402.5 70.5q0 -426 -385 -1163q385 0 385 -184z" />
    <glyph glyph-name="three" unicode="3" horiz-adv-x="820" 
d="M10 397l103 -60v-122v-231h312q144 0 250 68.5t106 217.5v269q0 190 -188 233q178 61 178 205v211v256q-95 -116 -285 -128.5t-385 49.5v-221v-136h225v149h103h57v-196q0 -66 -24.5 -82.5t-94.5 -16.5v-174q70 0 92.5 -13.5t22.5 -86.5v-344q0 -60 -57 -60h-58v377
q-59 -162 -357 -164z" />
    <glyph glyph-name="four" unicode="4" horiz-adv-x="903" 
d="M897 184h-236v-184h-227v184h-426l309 1250q22 -339 344 -329v-189v-657q188 -15 236 90v-165zM434 259v706l-143 -706h143z" />
    <glyph glyph-name="five" unicode="5" horiz-adv-x="770" 
d="M753 1434l-49 -217h-357l-14 -295q47 47 164 47q248 0 248 -213v-509q0 -124 -99 -192t-260 -68q-360 0 -360 258v367q74 -192 307 -194v-184q0 -47 53 -47h52v575h-58h-55v-80q-295 0 -279 752q564 -230 707 0z" />
    <glyph glyph-name="six" unicode="6" horiz-adv-x="768" 
d="M437 1025l6 56q0 71 -58 71h-53v-367q334 -25 412 73v-99v-512q0 -125 -99.5 -192.5t-259.5 -67.5q-360 0 -360 258v923v279q77 -169 354.5 -154.5t364.5 94.5v-277q0 -85 -307 -85zM437 234v429h-105v-429q0 -47 53 -47q52 0 52 47z" />
    <glyph glyph-name="seven" unicode="7" horiz-adv-x="770" 
d="M360 0h-340l394 1233h-371v121q445 -72 711 80q0 -205 -394 -1434z" />
    <glyph glyph-name="eight" unicode="8" horiz-adv-x="774" 
d="M194 775q-158 49 -158 268v150v254q352 -240 703 0v-254v-150q0 -219 -158 -268q166 -40 166 -221v-295v-272h-361h-358v272v295q0 182 166 221zM440 908v252h-105v-252q0 -43 53 -43q52 0 52 43zM440 190v458q0 43 -52 43q-53 0 -53 -43v-458h105z" />
    <glyph glyph-name="nine" unicode="9" horiz-adv-x="776" 
d="M29 599q93 -171 307 -183v-182q0 -47 53 -47q52 0 52 47v426q-34 -36 -127 -36q-126 0 -205.5 60.5t-79.5 168.5v334v260q358 -220 719 0v-258v-924q0 -278 -363 -278q-356 0 -356 276v336zM441 861v344h-105v-344q0 -47 53 -47q52 0 52 47z" />
    <glyph glyph-name="colon" unicode=":" horiz-adv-x="316" 
d="M292 689h-260v209q90 -144 260 -209zM288 0h-260v209q90 -145 260 -209z" />
    <glyph glyph-name="semicolon" unicode=";" horiz-adv-x="317" 
d="M290 691h-260v209q90 -144 260 -209zM124 -2l-57 47q67 67 73 125h-112q220 64 260 209q0 -273 -164 -381z" />
    <glyph glyph-name="semicolon" unicode="&#x37e;" horiz-adv-x="317" 
d="M290 691h-260v209q90 -144 260 -209zM124 -2l-57 47q67 67 73 125h-112q220 64 260 209q0 -273 -164 -381z" />
    <glyph glyph-name="at" unicode="@" horiz-adv-x="1640" 
d="M1194 303q244 0 244 307q0 668 -604 668q-335 0 -486 -199t-151 -469q0 -273 152.5 -477.5t452 -215.5t492.5 168l-4 -280q-204 -49 -452 -49q-352 0 -579.5 243t-227.5 605q0 361 227.5 600.5t579.5 239.5q360 0 568 -206.5t208 -633.5q0 -199 -118 -333t-308 -134z
M1192 138q-252 0 -252 45q-32 -61 -183 -61q-233 0 -233 182v233q0 78 56.5 136t227.5 145q99 50 99 80v89h-49q-56 0 -53 -73q4 -49 4 -74h-275v112v215q398 -151 658 0v-225v-804zM907 355v299q-98 -24 -98 -88v-211q0 -53 51 -53q47 0 47 53zM1193 1191
q0 -93 -25.5 -131.5t-99.5 -38.5l-202 -30v70q200 40 236 75t91 171v-116z" />
    <glyph glyph-name="A" unicode="A" horiz-adv-x="898" 
d="M886 0h-312l-124 1012l-123 -1012h-312l236 1214h399zM130 1400q55 -136 166 -156t176.5 -20t166 20t142.5 156v-116q0 -121 -26 -145.5t-99 -24.5h-401q-74 0 -99.5 38.5t-25.5 131.5v116zM751 529v-53h-342v53h342z" />
    <glyph glyph-name="B" unicode="B" horiz-adv-x="771" 
d="M33 0v1214h700v-164v-69q0 -151 -184 -213q194 -48 194 -207v-278q0 -142 -92.5 -212.5t-220.5 -70.5h-397zM436 930v129h-88v-205q88 0 88 76zM436 260v363q0 75 -88 75v-514q88 0 88 76zM28 1400q60 -136 180.5 -156t192 -20t180.5 20t155 156v-116
q0 -121 -28.5 -145.5t-107.5 -24.5h-436q-81 0 -108.5 38.5t-27.5 131.5v116z" />
    <glyph glyph-name="C" unicode="C" horiz-adv-x="753" 
d="M724 913h-287v129q-138 0 -138 -55v-745q0 -55 69 -55t69 35v354h287v-364q0 -102 -100 -163.5t-226 -61.5q-364 0 -364 258v713v259h690v-234v-70zM29 1400q59 -136 178 -156t189 -20t178 20t153 156v-116q0 -121 -28 -145.5t-106 -24.5h-430q-79 0 -106.5 38.5
t-27.5 131.5v116z" />
    <glyph glyph-name="D" unicode="D" horiz-adv-x="790" 
d="M31 0v1224l720 1v-264v-678q0 -134 -93.5 -208.5t-232.5 -74.5h-394zM434 260v704v75h-88v-855q88 0 88 76zM27 1400q61 -136 184.5 -156t196.5 -20t185 20t159 156v-116q0 -121 -29 -145.5t-110 -24.5h-447q-82 0 -110.5 38.5t-28.5 131.5v116z" />
    <glyph glyph-name="E" unicode="E" horiz-adv-x="687" 
d="M651 0h-616v1222h602v-5h-287v-504h268v-43h-268v-491h301v-179zM32 1400q52 -136 157 -156t166.5 -20t156.5 20t135 156v-116q0 -121 -24.5 -145.5t-93.5 -24.5h-379q-70 0 -94 38.5t-24 131.5v116z" />
    <glyph glyph-name="F" unicode="F" horiz-adv-x="753" 
d="M655 1208h-275v-374h246v-168h-246v-666h-315v1223h590v-15zM63 1400q56 -136 168 -156t178 -20t168 20t144 156v-116q0 -121 -26.5 -145.5t-99.5 -24.5h-406q-74 0 -100 38.5t-26 131.5v116z" />
    <glyph glyph-name="G" unicode="G" horiz-adv-x="849" 
d="M766 0h-151l-41 79q-104 -92 -220 -92q-113 0 -197.5 58.5t-84.5 186.5v991h356h368q10 -296 -315 -296v135h-47h-47v-840q0 -35 47 -35t47 35v268h-65v220h350v-710zM68 1400q62 -136 186.5 -156t198 -20t186 20t159.5 156v-116q0 -121 -29 -145.5t-111 -24.5h-450
q-83 0 -111.5 38.5t-28.5 131.5v116z" />
    <glyph glyph-name="H" unicode="H" horiz-adv-x="793" 
d="M748 0h-315v688h-88v-688h-315v1389q104 -162 315 -145v-512h88v512q247 -17 315 146v-1390z" />
    <glyph glyph-name="I" unicode="I" horiz-adv-x="370" 
d="M324 0l-285 10v1392q83 -323 285 -286v-1116z" />
    <glyph glyph-name="J" unicode="J" horiz-adv-x="775" 
d="M32 782q68 -263 288 -286v-274q0 -35 44 -35t44 35v911q247 23 315 246v-1134q0 -258 -357 -258q-127 0 -225.5 62t-98.5 163z" />
    <glyph glyph-name="K" unicode="K" horiz-adv-x="882" 
d="M821 0h-346l-121 532v-532h-315v1389q87 -203 315 -205v-228l128 248q176 8 329 185l-221 -609z" />
    <glyph glyph-name="L" unicode="L" horiz-adv-x="633" 
d="M619 0h-591v1389q98 -253 315 -265v-940q218 -32 276 137v-321z" />
    <glyph glyph-name="M" unicode="M" horiz-adv-x="1208" 
d="M1132 0h-281v805l-273 -735l-296 735v-805h-246v1389q112 -203 405 -265l134 -424l135 454q291 -22 422 235v-1389z" />
    <glyph glyph-name="N" unicode="N" horiz-adv-x="866" 
d="M836 0h-324l-214 764v-764h-263v1389q129 -197 358 -265l180 -344v374q191 28 263 235v-1389z" />
    <glyph glyph-name="O" unicode="O" horiz-adv-x="806" 
d="M42 245v1144q141 -186 362 -166q229 -20 357 166v-1142q0 -125 -99.5 -192.5t-259.5 -67.5q-360 0 -360 258zM461 230v787v43h-104v-43v-787q0 -43 53 -43q51 0 51 43z" />
    <glyph glyph-name="P" unicode="P" horiz-adv-x="816" 
d="M372 528v-528h-307v1223h331h197h191v-43v-398q0 -141 -78 -199.5t-334 -54.5zM477 809v240h-105v-316q105 0 105 76zM62 1400q61 -136 184.5 -156t196.5 -20t184.5 20t158.5 156v-116q1 -121 -28.5 -145.5t-110.5 -24.5h-446q-82 0 -111 38.5t-28 131.5v116z" />
    <glyph glyph-name="Q" unicode="Q" horiz-adv-x="800" 
d="M752 -196h-125q-193 0 -193 183q-401 0 -401 258v978h719v-976q0 -150 -158 -226q0 -34 14 -87.5t144 -129.5zM445 230v820h-105v-820q0 -43 53 -43q52 0 52 43zM30 1400q61 -136 184.5 -156t196 -20t184 20t158.5 156v-116q3 -121 -27.5 -145.5t-111.5 -24.5h-445
q-82 0 -110.5 38.5t-28.5 131.5v116z" />
    <glyph glyph-name="R" unicode="R" horiz-adv-x="836" 
d="M813 -2h-315q-51 61 -51 346v2l2 86q3 179 3 183q0 73 -98 73v-688h-315v1389q110 -175 359 -180q250 -5 360 180v-381q0 -167 -195 -226q196 -46 196 -237l-5 -157q0 -344 59 -390zM452 938v111h-98v-187q98 0 98 76z" />
    <glyph glyph-name="S" unicode="S" horiz-adv-x="820" 
d="M30 504l290 -80v-179q0 -49 59 -49q57 0 57 49v170q0 78 -104 183q-201 75 -250 142t-49 147q0 340 364 340h346l-20 -154q-40 -228 -207 -248v307h-127q-55 0 -55 -83l6 -93q0 -80 106 -186q197 -69 250.5 -144t53.5 -170v-183q0 -286 -365 -286q-352 0 -352 260z
M24 677q55 -136 91 -176t206 -70v-70l-172 20q-74 10 -99.5 48.5t-25.5 131.5v116zM759 1299q-16 -92 -48 -125.5t-107 -30.5l-202 16l12 69q202 -6 244.5 27.5t120.5 157.5z" />
    <glyph glyph-name="T" unicode="T" horiz-adv-x="734" 
d="M516 1222v-1222h-315v1222h315zM0 1400q59 -136 178 -156t189.5 -20t178.5 20t153 156v-116q0 -121 -28 -145.5t-106 -24.5h-431q-79 0 -106.5 38.5t-27.5 131.5v116z" />
    <glyph glyph-name="U" unicode="U" horiz-adv-x="826" 
d="M33 1389q97 -205 315 -189v-970q0 -43 53 -43q52 0 52 43v970q237 -16 315 189v-1142q0 -124 -103 -192t-264 -68q-149 0 -258.5 61t-109.5 197v1144z" />
    <glyph glyph-name="V" unicode="V" horiz-adv-x="899" 
d="M839 1214l-193 -1214h-446l-193 1434l307 -210l109 -792l108 782h308zM861 1299q-16 -92 -48 -125.5t-107 -30.5l-182 16l12 69q182 -6 224.5 27.5t120.5 157.5z" />
    <glyph glyph-name="W" unicode="W" horiz-adv-x="1288" 
d="M1284 1434l-184 -1434h-373l-113 791l-106 -791h-322l-178 1434l363 -662l108 442h355l86 -442zM327 1400q55 -136 166 -156t176.5 -20t166 20t142.5 156v-116q0 -121 -26 -145.5t-99 -24.5h-401q-74 0 -99.5 38.5t-25.5 131.5v116z" />
    <glyph glyph-name="X" unicode="X" horiz-adv-x="932" 
d="M926 0h-338l-144 461l-436 -461l248 815l-173 569q135 -205 332 -130l72 -236l408 416l-215 -664zM74 1425q88 -117 133 -146.5t207 -24.5l18 -67l-161 -15q-74 -10 -108.5 20.5t-58.5 120.5z" />
    <glyph glyph-name="Y" unicode="Y" horiz-adv-x="900" 
d="M865 1254l-176 -398l-103 -289v-567h-315v556q-9 76 -81 297q-62 147 -182 411h301l142 -338l131 328h283zM865 1273q0 -93 -25.5 -131.5t-99.5 -38.5h-222l59 150h181q52 0 107 136v-116zM9 1398q55 -136 107 -136h191l59 -150h-232q-74 0 -99.5 38.5t-25.5 131.5v116z
" />
    <glyph glyph-name="Z" unicode="Z" horiz-adv-x="769" 
d="M731 0h-711v182l347 975l-306 10l-20 57h666v-69l-345 -971h369v-184zM39 1400q57 -136 171 -156t181.5 -20t171 20t146.5 156v-116q0 -121 -27 -145.5t-102 -24.5h-412q-77 0 -103 38.5t-26 131.5v116z" />
    <glyph glyph-name="backslash" unicode="\" horiz-adv-x="684" 
d="M28 1434l458 -1434h170l-229 717l-115 359l-57 179q-113 -21 -227 179z" />
    <glyph glyph-name="underscore" unicode="_" horiz-adv-x="762" 
d="M766 -246h-766v52h766v-52z" />
    <glyph glyph-name="a" unicode="a" horiz-adv-x="739" 
d="M704 0q-252 0 -252 45q-32 -61 -183 -61q-233 0 -233 182v233q0 78 56.5 136t227.5 145q99 50 99 80v89h-49q-56 0 -53 -73q4 -49 4 -74h-275v112v215q398 -151 658 0v-225v-804zM419 217v299q-98 -24 -98 -88v-211q0 -53 51 -53q47 0 47 53zM705 1053
q0 -93 -25.5 -131.5t-99.5 -38.5l-202 -30v70q200 40 236 75t91 171v-116z" />
    <glyph glyph-name="b" unicode="b" 
d="M270 39q-24 -39 -239 -39v1434q82 -234 284 -308v-118q81 -9 177 1q77 20 206 91v-232v-694q0 -88 -77 -139t-185 -51q-84 0 -166 55zM414 217v579q0 53 -49 53h-50v-632q0 -53 50 -53q49 0 49 53z" />
    <glyph glyph-name="c" unicode="c" 
d="M698 647h-214v122q-119 -30 -192 0v-548q0 -59 73 -59h119v340h214v-283q0 -235 -329 -235q-338 0 -338 245v475v345q169 -90 338 -101q165 -23 329 221v-235v-287z" />
    <glyph glyph-name="d" unicode="d" 
d="M459 39q24 -39 239 -39v1434q-82 -234 -284 -308v-118q-81 -9 -177 1q-77 20 -206 91v-232v-694q0 -88 77 -139t185 -51q84 0 166 55zM315 217v579q0 53 49 53h50v-632q0 -53 -50 -53q-49 0 -49 53z" />
    <glyph glyph-name="e" unicode="e" horiz-adv-x="731" 
d="M316 492v-271q0 -59 50 -59q49 0 49 59v234h284v-236q0 -235 -335 -235q-332 0 -332 245v695v245q126 -215 284 -200q192 -10 383 120v-355q0 -242 -383 -242zM415 732q0 57 -49 57h-50v-233q99 0 99 176z" />
    <glyph glyph-name="f" unicode="f" horiz-adv-x="601" 
d="M567 839h-207v-839h-241v839h-96v42h96v493q72 -103 225 -96.5t223 156.5q0 -306 -55 -306q-73 0 -112.5 -27.5t-39.5 -219.5h207v-42z" />
    <glyph glyph-name="g" unicode="g" 
d="M82 -246q0 168 231 168q101 0 101 105q-56 -43 -176 -43q-84 0 -145.5 44.5t-61.5 116.5v674v300q217 -160 389.5 -184t277.5 226v-1145q0 -113 -44.5 -187.5t-276.5 -74.5h-295zM414 207v622h-119v-620q0 -53 70 -53q49 0 49 51z" />
    <glyph glyph-name="h" unicode="h" horiz-adv-x="733" 
d="M700 0h-264v846q-69 -17 -119 -7v-839h-284v1434q72 -192 284 -264v-194q261 -7 383 105v-223v-858z" />
    <glyph glyph-name="i" unicode="i" horiz-adv-x="340" 
d="M312 965h-285v209q53 -164 285 -209zM312 0h-285v901h285v-901z" />
    <glyph glyph-name="j" unicode="j" horiz-adv-x="365" 
d="M324 965h-285v209q73 -134 285 -209zM-121 -246q174 110 160 248v899h285v-928q0 -219 -232 -219h-213z" />
    <glyph glyph-name="k" unicode="k" horiz-adv-x="840" 
d="M828 0h-335l-175 420v-420h-284v1434q92 -311 284 -322v-321l73 185q194 -38 368 185l-207 -508z" />
    <glyph glyph-name="l" unicode="l" horiz-adv-x="352" 
d="M319 0h-285v1384q112 -247 285 -234v-1150z" />
    <glyph glyph-name="m" unicode="m" horiz-adv-x="1118" 
d="M1084 0h-284v801h-49q-50 0 -50 -51v-750h-284v750q0 53 -49 53h-50v-803h-284v1161q112 -200 284 -180v-41q59 49 177 49q99 0 180 -79q279 79 409 190v-279v-821z" />
    <glyph glyph-name="n" unicode="n" 
d="M699 0h-285v782q0 53 -49 53h-49v-835h-285v1161q83 -185 285 -189q235 -1 383 103v-221v-854z" />
    <glyph glyph-name="o" unicode="o" horiz-adv-x="721" 
d="M26 229v891q138 -261 669 -80v-821q0 -235 -330 -235q-339 0 -339 245zM410 221v598h-99v-598q0 -59 50 -59q49 0 49 59z" />
    <glyph glyph-name="p" unicode="p" horiz-adv-x="714" 
d="M315 27q0 -273 -284 -273v1247l141 -50l98 3q70 -5 166 5q97 10 262 72v-212v-674q0 -73 -60 -117t-146 -44q-119 0 -177 43zM414 217v612q-49 -20 -99 0v-614q0 -51 50 -51q49 0 49 53zM16 1168q67 -131 106.5 -167.5t240.5 -48.5l7 -70l-204 12q-74 -6 -102.5 30
t-37.5 129z" />
    <glyph glyph-name="q" unicode="q" 
d="M698 -246q-284 0 -284 273q-56 -43 -176 -43q-84 0 -145.5 44.5t-61.5 116.5v654v208q154 -78 368 -87t299 241v-1407zM414 215v594q-49 -20 -99 0v-592q0 -53 50 -53q49 0 49 51z" />
    <glyph glyph-name="r" unicode="r" 
d="M422 510v195h-49q-49 0 -49 -51v-654h-285v1161q103 -225 285 -230v-89q261 -3 383 136v-254q0 -214 -285 -214z" />
    <glyph glyph-name="s" unicode="s" horiz-adv-x="725" 
d="M31 537q42 -178 244 -70v-305h88q48 0 48 130t-59 173q-315 210 -315 634q603 -185 655 70v-464h-222v194q-156 0 -156 -91q0 -94 285 -217q99 -71 99 -188v-174q0 -245 -337 -245q-330 0 -330 235v318z" />
    <glyph glyph-name="t" unicode="t" horiz-adv-x="618" 
d="M596 0h-180q-193 0 -231 58t-38 223v708h-127v72q276 -53 412 334v-334q117 -20 154 80v-152h-154v-706q0 -51 30.5 -68.5t133.5 -17.5v-197z" />
    <glyph glyph-name="u" unicode="u" 
d="M698 0h-284v39q-55 -55 -176 -55q-84 0 -145.5 44.5t-61.5 116.5v1016l284 -248v-696q0 -53 50 -53q49 0 49 51v666l284 110v-991zM702 1043q0 -93 -25.5 -131.5t-109.5 -48.5l-152 -20v70q160 30 196 70t91 176v-116z" />
    <glyph glyph-name="v" unicode="v" horiz-adv-x="776" 
d="M769 1161l-209 -1161h-344l-209 1161q168 -311 336 -343l49 -343l68 363z" />
    <glyph glyph-name="w" unicode="w" horiz-adv-x="1223" 
d="M1216 1161l-199 -1161h-313l-89 475l-81 -475h-328l-199 1161q132 -268 324 -315l49 -316l88 296q144 15 287 44l88 -340l59 386q197 2 314 245z" />
    <glyph glyph-name="x" unicode="x" horiz-adv-x="801" 
d="M795 0h-314l-98 315l-92 -315h-285l223 614l-217 547q165 -255 398 -301l38 150q155 -4 310 151l-191 -561z" />
    <glyph glyph-name="y" unicode="y" horiz-adv-x="791" 
d="M779 1160l-217 -1154q-34 -177 -91.5 -214.5t-159.5 -37.5h-199v156q112 0 139 11t27 65t-123 563l-148 612l285 -188l119 -426l74 414q207 -31 294 199zM760 1044q-16 -92 -48 -125.5t-105 -20.5l-132 6l12 69q130 -6 172.5 27.5t120.5 157.5z" />
    <glyph glyph-name="z" unicode="z" 
d="M711 0h-684v160l333 665q-158 5 -315 70v66v137q513 -196 635 63q0 -237 -368 -1037h200q159 -10 199 100v-224z" />
    <glyph glyph-name="Adieresis" unicode="&#xc4;" horiz-adv-x="901" 
d="M886 0h-312l-124 1012l-123 -1012h-312l236 1244h399zM130 1400q55 -136 91 -146t241.5 -10t241 10t77.5 146v-116q0 -121 -26 -145.5t-99 -24.5h-401q-74 0 -99.5 38.5t-25.5 131.5v116zM751 529v-53h-342v53h342zM697 1596q0 -39 -29.5 -68t-68.5 -29q-99 0 -99 97
q0 40 29.5 69t69.5 29q98 0 98 -98zM410 1596q0 -44 -32 -70.5t-66 -26.5q-99 0 -99 97q0 40 29.5 69t69.5 29q98 0 98 -98z" />
    <glyph glyph-name="Aring" unicode="&#xc5;" horiz-adv-x="901" 
d="M886 0h-312l-124 1012l-123 -1012h-312l236 1244h399zM130 1400q55 -136 91 -146t241.5 -10t241 10t77.5 146v-116q0 -121 -26 -145.5t-99 -24.5h-401q-74 0 -99.5 38.5t-25.5 131.5v116zM751 529v-53h-342v53h342zM643 1696v-10q0 -80 -55 -132.5t-135 -52.5
q-54 0 -97 26.5t-69.5 69.5t-26.5 97q0 80 56.5 136t136.5 56q56 0 98 -25t67 -67t25 -98zM525 1694v8q0 64 -72 64q-70 0 -70 -72q0 -70 70 -70q72 0 72 70z" />
    <glyph glyph-name="cent" unicode="&#xa2;" horiz-adv-x="739" 
d="M493 -8v-115q-53 99 -246 119q-211 39 -211 233v695q0 189 211 233q180 23 246 129v-125q210 0 210 -227q0 -287 -284 -287v285q0 57 -49 57q-50 0 -50 -57v-711q0 -59 50 -59q49 0 49 59v281q284 0 284 -285q0 -187 -210 -225z" />
    <glyph glyph-name="paragraph" unicode="&#xb6;" horiz-adv-x="1194" 
d="M1161 1249h-112v-1249h-285v1249h-119v-1249h-285v765q-128 3 -227.5 73t-99.5 213v100q0 142 99.5 212.5t227.5 70.5h801v-185z" />
    <glyph glyph-name="registered" unicode="&#xae;" horiz-adv-x="834" 
d="M813 1049q0 -168 -113 -282t-282 -114q-146 0 -272 102.5t-126 293.5q0 167 115.5 281t282.5 114q103 0 190 -45t146 -136t59 -214zM748 1049q0 139 -95.5 234t-234.5 95q-141 0 -236.5 -94t-95.5 -235t95.5 -235.5t236.5 -94.5q87 0 159.5 37t121.5 113t49 180zM573 786
h-120q-19 23 -19 132v0l1 33q1 68 1 70q0 27 -37 27v-261h-120v469h273v-86q0 -64 -74 -86q74 -17 74 -90l-1 -60q0 -131 22 -148zM436 1143v43h-37v-72q37 0 37 29zM278 1319q23 -52 38.5 -55.5t102 -3.5t101.5 3.5t33 55.5v-44q0 -46 -11 -55.5t-42 -9.5h-169
q-31 0 -42 15t-11 50v44z" />
    <glyph glyph-name="copyright" unicode="&#xa9;" horiz-adv-x="834" 
d="M813 1049q0 -168 -113 -282t-282 -114q-146 0 -272 102.5t-126 293.5q0 167 115.5 281t282.5 114q103 0 190 -45t146 -136t59 -214zM748 1049q0 139 -95.5 234t-234.5 95q-141 0 -236.5 -94t-95.5 -235t95.5 -235.5t236.5 -94.5q87 0 159.5 37t121.5 113t49 180z
M573 1080h-101v58q-56 -14 -90 0v-258q0 -28 34 -28h56v160h101v-133q0 -111 -155 -111q-159 0 -159 115v224v162q80 -42 159 -47q78 -11 155 104v-111v-135z" />
    <glyph glyph-name="s bracketleft" unicode="[" horiz-adv-x="2442" 
d="M76 1085q97 -239 292 -274t310 -35t292 35t250 274v-204q0 -213 -45.5 -256t-173.5 -43h-705l-55 -318q-52 332 -165 821zM1220 1085q97 -239 292 -274t310.5 -35t292 35t250.5 274q-105 -434 -144 -821l-76 318h-705q-130 0 -175 68t-45 231v204zM640 1085
q97 -239 292 -274t310.5 -35t292 35t250.5 274v-204q0 -213 -46 -256t-174 -43h-705q-130 0 -175 68t-45 231v204zM1224 1025q-192 -816 -364 -1016q213 0 364 847q161 -847 366 -847q-165 200 -366 1016zM2228 142h-1992v586h1992v-586zM456 242v223q0 10 -52 10
q-54 0 -54 -10v-223q0 -10 54 -10q52 0 52 10zM632 242v223q0 10 -52 10q-54 0 -54 -10v-223q0 -10 54 -10q52 0 52 10zM807 242v223q0 10 -51 10q-54 0 -54 -10v-223q0 -10 54 -10q51 0 51 10zM1739 242v223q0 10 -52 10q-53 0 -53 -10v-223q0 -10 53 -10q52 0 52 10z
M2108 242v223q0 10 -51 10q-54 0 -54 -10v-223q0 -10 54 -10q51 0 51 10zM1915 242v223q0 10 -52 10q-54 0 -54 -10v-223q0 -10 54 -10q52 0 52 10z" />
    <glyph glyph-name="r bracketright" unicode="]" horiz-adv-x="679" 
d="M60 1441q24 -59 71.5 -67.5t75.5 -8.5t71.5 8.5t61.5 67.5v-50q0 -52 -50 -88l-190 1q-12 17 -40 137zM340 1441q24 -59 71.5 -67.5t75.5 -8.5t71.5 8.5t61.5 67.5q-26 -106 -35 -137l-200 -1q-45 48 -45 88v50zM528 1460q-50 0 -185 208q-130 -208 -182 -208
q42 49 182 332q144 -283 185 -332zM524 1464l-189 -78l-180 75l-26 263q42 -125 206 -282q150 83 207 282zM443 1360h-197l-25 179l121 180l124 -180zM273 523v215h-42v-215h42zM314 -25q0 166 -60 166q-62 0 -62 -166q0 -7 62 -7q60 0 60 7zM347 1071q-128 0 -128 13v300
q0 13 128 13q124 0 124 -13v-300q0 -13 -124 -13zM342 1220q-5 0 -5 2v62q0 3 5 3t5 -3v-62q0 -2 -5 -2zM413.5 1267.5q-28.5 28.5 -69.5 28.5q-48 0 -74 -31t-26 -67q0 -41 29.5 -69.5t72.5 -28.5q39 0 67.5 29t28.5 68q0 42 -28.5 70.5zM343 1168q-29 0 -29 29t31 29
q27 0 27 -29t-29 -29zM347 761q-150 0 -150 13v299q0 13 150 13q144 0 144 -13v-299q0 -13 -144 -13zM422 818v213h-53v-213h53zM347 484q-169 0 -169 13v300q0 13 169 13q163 0 163 -13v-300q0 -13 -163 -13zM307 818v215h-53v-215h53zM359 523v215h-41v-215h41zM452 523
v215h-39v-215h39zM345 183q-187 0 -187 13v300q0 13 187 13q180 0 180 -13v-300q0 -13 -180 -13zM271 237v215h-42v-215h42zM359 237v215h-42v-215h42zM452 237v215h-42v-215h42zM352 -78q-229 0 -229 13v278q0 12 229 12q220 0 220 -12v-278q0 -13 -220 -13zM512 -25
q0 166 -60 166q-62 0 -62 -166q0 -7 62 -7q60 0 60 7zM405 1194q0 -5 -3 -5h-61q-3 0 -3 5t3 5h61q3 0 3 -5z" />
    <glyph glyph-name="question" unicode="?" horiz-adv-x="727" 
d="M437 128q-142 -25 -284 200q0 130 18.5 203.5t131.5 214.5q99 123 99 202v161h-264q0 -269 -104 -269v604q173 -320 665 -92v-187v-184q0 -90 -29.5 -154t-134.5 -185q-70 -81 -98 -207v-307zM437 0h-284v209q72 -165 284 -209z" />
    </font>
</defs>
</svg>
